<svg viewBox="0 0 720 420" xmlns="http://www.w3.org/2000/svg" role="img" width="720" height="420" font-family="system-ui, -apple-system, Segoe UI, Helvetica, Arial, sans-serif"><title>US adoption of generative AI, the internet and the PC, aligned on years since launch</title><desc>Generative AI: 44.6% at 1.75 years, 54.6% at 2.75, 62% at 3.5. Internet: 21% at 2 years, 30.1% at 3, 52% at 5, 61% at 8, 76% at 15. PC: 19.7% at 3 years, about 25.7% at 8.</desc>
<rect x="0" y="0" width="720" height="420" rx="8" fill="#fbfaf7"/>
<line x1="64" y1="348.0" x2="700" y2="348.0" stroke="#e1e0d9" stroke-width="1"/><text x="56" y="352.0" text-anchor="end" font-size="12" fill="#6b6a65">0%</text>
<line x1="64" y1="283.2" x2="700" y2="283.2" stroke="#e1e0d9" stroke-width="1"/><text x="56" y="287.2" text-anchor="end" font-size="12" fill="#6b6a65">20%</text>
<line x1="64" y1="218.4" x2="700" y2="218.4" stroke="#e1e0d9" stroke-width="1"/><text x="56" y="222.4" text-anchor="end" font-size="12" fill="#6b6a65">40%</text>
<line x1="64" y1="153.6" x2="700" y2="153.6" stroke="#e1e0d9" stroke-width="1"/><text x="56" y="157.6" text-anchor="end" font-size="12" fill="#6b6a65">60%</text>
<line x1="64" y1="88.8" x2="700" y2="88.8" stroke="#e1e0d9" stroke-width="1"/><text x="56" y="92.8" text-anchor="end" font-size="12" fill="#6b6a65">80%</text>
<line x1="64" y1="24.0" x2="700" y2="24.0" stroke="#e1e0d9" stroke-width="1"/><text x="56" y="28.0" text-anchor="end" font-size="12" fill="#6b6a65">100%</text>
<text x="64.0" y="366" text-anchor="middle" font-size="12" fill="#6b6a65">0</text>
<text x="143.5" y="366" text-anchor="middle" font-size="12" fill="#6b6a65">2</text>
<text x="223.0" y="366" text-anchor="middle" font-size="12" fill="#6b6a65">4</text>
<text x="302.5" y="366" text-anchor="middle" font-size="12" fill="#6b6a65">6</text>
<text x="382.0" y="366" text-anchor="middle" font-size="12" fill="#6b6a65">8</text>
<text x="461.5" y="366" text-anchor="middle" font-size="12" fill="#6b6a65">10</text>
<text x="541.0" y="366" text-anchor="middle" font-size="12" fill="#6b6a65">12</text>
<text x="620.5" y="366" text-anchor="middle" font-size="12" fill="#6b6a65">14</text>
<text x="700.0" y="366" text-anchor="middle" font-size="12" fill="#6b6a65">16</text>
<line x1="64" y1="348" x2="700" y2="348" stroke="#c3c2b7" stroke-width="1"/>
<text x="382.0" y="390" text-anchor="middle" font-size="13" fill="#444441">Years since first mass-market product</text>
<text x="16" y="186.0" text-anchor="middle" font-size="13" fill="#444441" transform="rotate(-90 16 186.0)">% of US adults using</text>
<polyline points="133.6,203.5 173.3,171.1 203.1,147.1" fill="none" stroke="#2a78d6" stroke-width="2.5" stroke-linejoin="round" stroke-linecap="round"/>
<circle cx="133.6" cy="203.5" r="4.5" fill="#2a78d6" stroke="#fbfaf7" stroke-width="1.5"/>
<circle cx="173.3" cy="171.1" r="4.5" fill="#2a78d6" stroke="#fbfaf7" stroke-width="1.5"/>
<circle cx="203.1" cy="147.1" r="4.5" fill="#2a78d6" stroke="#fbfaf7" stroke-width="1.5"/>
<text x="219.0" y="134.2" text-anchor="start" font-size="13" font-weight="500" fill="#2a78d6">Generative AI (2022): 62% at 3.5 yrs</text>
<polyline points="143.5,280.0 183.2,250.5 262.8,179.5 302.5,169.8 342.2,156.8 382.0,150.4 421.8,143.9 461.5,127.7 501.2,118.0 541.0,108.2 580.8,108.2 620.5,101.8 660.2,101.8" fill="none" stroke="#d95926" stroke-width="2.5" stroke-linejoin="round" stroke-linecap="round" stroke-dasharray="7 4"/>
<rect x="139.5" y="276.0" width="8" height="8" fill="#d95926" stroke="#fbfaf7" stroke-width="1.5"/>
<rect x="179.2" y="246.5" width="8" height="8" fill="#d95926" stroke="#fbfaf7" stroke-width="1.5"/>
<rect x="258.8" y="175.5" width="8" height="8" fill="#d95926" stroke="#fbfaf7" stroke-width="1.5"/>
<rect x="298.5" y="165.8" width="8" height="8" fill="#d95926" stroke="#fbfaf7" stroke-width="1.5"/>
<rect x="338.2" y="152.8" width="8" height="8" fill="#d95926" stroke="#fbfaf7" stroke-width="1.5"/>
<rect x="378.0" y="146.4" width="8" height="8" fill="#d95926" stroke="#fbfaf7" stroke-width="1.5"/>
<rect x="417.8" y="139.9" width="8" height="8" fill="#d95926" stroke="#fbfaf7" stroke-width="1.5"/>
<rect x="457.5" y="123.7" width="8" height="8" fill="#d95926" stroke="#fbfaf7" stroke-width="1.5"/>
<rect x="497.2" y="114.0" width="8" height="8" fill="#d95926" stroke="#fbfaf7" stroke-width="1.5"/>
<rect x="537.0" y="104.2" width="8" height="8" fill="#d95926" stroke="#fbfaf7" stroke-width="1.5"/>
<rect x="576.8" y="104.2" width="8" height="8" fill="#d95926" stroke="#fbfaf7" stroke-width="1.5"/>
<rect x="616.5" y="97.8" width="8" height="8" fill="#d95926" stroke="#fbfaf7" stroke-width="1.5"/>
<rect x="656.2" y="97.8" width="8" height="8" fill="#d95926" stroke="#fbfaf7" stroke-width="1.5"/>
<text x="660.2" y="79.1" text-anchor="end" font-size="13" font-weight="500" fill="#d95926">Internet (1995)</text>
<polyline points="183.2,284.2 382.0,264.7" fill="none" stroke="#199e70" stroke-width="2.5" stroke-linejoin="round" stroke-linecap="round" stroke-dasharray="2 4"/>
<polygon points="183.2,278.7 188.2,288.2 178.2,288.2" fill="#199e70" stroke="#fbfaf7" stroke-width="1.5"/>
<polygon points="382.0,259.2 387.0,268.7 377.0,268.7" fill="#199e70" stroke="#fbfaf7" stroke-width="1.5"/>
<text x="393.9" y="270.2" text-anchor="start" font-size="13" font-weight="500" fill="#199e70">PC (1981)</text>
</svg>
